<svg enable-background="new 0 0 32 32" height="32" viewBox="0 0 32 32" width="32" xmlns="http://www.w3.org/2000/svg"><path d="m8 12c1.103 0 2 .897 2 2s-.897 2-2 2-2-.897-2-2 .897-2 2-2m0-1c-1.657 0-3 1.343-3 3s1.343 3 3 3 3-1.343 3-3-1.343-3-3-3zm6-4c1.103 0 2 .897 2 2s-.897 2-2 2-2-.897-2-2 .897-2 2-2m0-1c-1.657 0-3 1.343-3 3s1.343 3 3 3 3-1.343 3-3-1.343-3-3-3zm8 3c1.103 0 2 .897 2 2s-.897 2-2 2-2-.897-2-2 .897-2 2-2m0-1c-1.656 0-3 1.343-3 3s1.344 3 3 3 3-1.343 3-3-1.344-3-3-3zm2 9c1.103 0 2 .897 2 2s-.897 2-2 2-2-.897-2-2 .897-2 2-2m0-1c-1.656 0-3 1.344-3 3s1.344 3 3 3 3-1.344 3-3-1.344-3-3-3zm-8-13c7.168 0 13 5.832 13 13 0 6.471-4.02 13-13 13-1.591 0-1.965-.341-2.042-.445-.236-.322.07-1.296.315-2.078.418-1.331.893-2.839 0-4.057-.711-.969-2.069-1.42-4.273-1.42-6.755 0-6.995-5.39-7-6 0-6.505 5.953-12 13-12m0-1c-7.732 0-14 6-14 13 0 0 0 7 8 7 9 0-2 8 6 8 9 0 14-6.268 14-14s-6.268-14-14-14z" fill="#3d3d3d"/></svg>